<svg width="77" height="32" viewBox="0 0 77 32" fill="none" xmlns="http://www.w3.org/2000/svg">
<path d="M5.36717 20.4138C4.74336 20.4138 4.18428 20.2667 3.68993 19.9724C3.20736 19.6782 2.82483 19.278 2.54235 18.7719C2.25986 18.254 2.11862 17.6655 2.11862 17.0064V8.37299C2.11862 8.1729 2.17747 8.00811 2.29517 7.87864C2.42464 7.74917 2.58943 7.68444 2.78952 7.68444C2.98961 7.68444 3.15439 7.74917 3.28386 7.87864C3.41333 8.00811 3.47807 8.1729 3.47807 8.37299V17.0064C3.47807 17.6066 3.65462 18.101 4.00772 18.4894C4.36083 18.866 4.81398 19.0544 5.36717 19.0544H5.84386C6.03218 19.0544 6.1852 19.1191 6.3029 19.2486C6.4206 19.378 6.47945 19.5428 6.47945 19.7429C6.47945 19.943 6.40883 20.1078 6.26759 20.2373C6.12635 20.355 5.94979 20.4138 5.73793 20.4138H5.36717ZM0.971035 12.2924C0.794483 12.2924 0.647356 12.2395 0.529655 12.1335C0.411954 12.0158 0.353104 11.8746 0.353104 11.7098C0.353104 11.5333 0.411954 11.392 0.529655 11.2861C0.647356 11.1684 0.794483 11.1095 0.971035 11.1095H5.4731C5.64966 11.1095 5.79678 11.1684 5.91448 11.2861C6.03218 11.392 6.09104 11.5333 6.09104 11.7098C6.09104 11.8746 6.03218 12.0158 5.91448 12.1335C5.79678 12.2395 5.64966 12.2924 5.4731 12.2924H0.971035ZM9.38097 16.4767C9.1691 16.4767 8.99844 16.412 8.86897 16.2825C8.75127 16.153 8.69241 15.9883 8.69241 15.7882V7.31368C8.69241 7.10182 8.75127 6.93703 8.86897 6.81933C8.99844 6.68986 9.1691 6.62513 9.38097 6.62513C9.58106 6.62513 9.73996 6.68986 9.85766 6.81933C9.98713 6.93703 10.0519 7.10182 10.0519 7.31368V15.7882C10.0519 15.9883 9.98713 16.153 9.85766 16.2825C9.73996 16.412 9.58106 16.4767 9.38097 16.4767ZM16.9727 20.4138C16.7726 20.4138 16.6078 20.3491 16.4783 20.2196C16.3489 20.0901 16.2841 19.9312 16.2841 19.7429V15.1526C16.2841 14.4228 16.1429 13.8226 15.8604 13.3517C15.5897 12.8809 15.2131 12.5278 14.7305 12.2924C14.2597 12.057 13.7241 11.9393 13.1239 11.9393C12.5471 11.9393 12.0234 12.0512 11.5526 12.2748C11.0935 12.4984 10.7286 12.8044 10.4579 13.1929C10.1872 13.5813 10.0519 14.0226 10.0519 14.517H9.08083C9.10437 13.7755 9.30446 13.1163 9.6811 12.5396C10.0577 11.9511 10.558 11.4921 11.1818 11.1625C11.8056 10.8212 12.5 10.6505 13.2651 10.6505C14.1008 10.6505 14.8482 10.8271 15.5073 11.1802C16.1664 11.5215 16.6843 12.0276 17.061 12.6985C17.4494 13.3694 17.6436 14.1874 17.6436 15.1526V19.7429C17.6436 19.9312 17.5789 20.0901 17.4494 20.2196C17.3199 20.3491 17.161 20.4138 16.9727 20.4138ZM9.38097 20.4138C9.1691 20.4138 8.99844 20.355 8.86897 20.2373C8.75127 20.1078 8.69241 19.943 8.69241 19.7429V11.445C8.69241 11.2331 8.75127 11.0683 8.86897 10.9506C8.99844 10.8212 9.1691 10.7564 9.38097 10.7564C9.58106 10.7564 9.73996 10.8212 9.85766 10.9506C9.98713 11.0683 10.0519 11.2331 10.0519 11.445V19.7429C10.0519 19.943 9.98713 20.1078 9.85766 20.2373C9.73996 20.355 9.58106 20.4138 9.38097 20.4138ZM25.0192 20.5021C24.0658 20.5021 23.2183 20.2961 22.4768 19.8842C21.7471 19.4604 21.1703 18.8778 20.7466 18.1363C20.3347 17.3948 20.1287 16.5473 20.1287 15.594C20.1287 14.6288 20.3229 13.7814 20.7113 13.0516C21.1115 12.3101 21.6588 11.7275 22.3532 11.3037C23.0477 10.88 23.848 10.6682 24.7543 10.6682C25.6489 10.6682 26.4257 10.8741 27.0848 11.2861C27.7557 11.6863 28.2736 12.2454 28.6385 12.9633C29.0034 13.6813 29.1858 14.4993 29.1858 15.4174C29.1858 15.6057 29.1269 15.7587 29.0092 15.8764C28.8915 15.9824 28.7385 16.0353 28.5502 16.0353H21.0468V14.9054H28.6915L27.9323 15.4527C27.9441 14.77 27.8205 14.158 27.5615 13.6166C27.3026 13.0752 26.9318 12.6514 26.4492 12.3454C25.9784 12.0394 25.4135 11.8864 24.7543 11.8864C24.0835 11.8864 23.4949 12.0453 22.9888 12.3631C22.4827 12.6809 22.0884 13.1222 21.8059 13.6872C21.5352 14.2404 21.3999 14.876 21.3999 15.594C21.3999 16.3119 21.5529 16.9475 21.8589 17.5007C22.1767 18.0539 22.6063 18.4894 23.1477 18.8072C23.6892 19.125 24.313 19.2839 25.0192 19.2839C25.4429 19.2839 25.8666 19.2133 26.2903 19.072C26.7258 18.919 27.0731 18.7307 27.332 18.5071C27.4615 18.4011 27.6086 18.3482 27.7734 18.3482C27.9382 18.3364 28.0794 18.3776 28.1971 18.4717C28.3501 18.613 28.4266 18.766 28.4266 18.9308C28.4384 19.0956 28.3737 19.2368 28.2324 19.3545C27.844 19.6841 27.3497 19.9607 26.7494 20.1843C26.1491 20.3962 25.5724 20.5021 25.0192 20.5021ZM40.4361 20.4138C39.8123 20.4138 39.2532 20.2667 38.7589 19.9724C38.2763 19.6782 37.8938 19.278 37.6113 18.7719C37.3288 18.254 37.1876 17.6655 37.1876 17.0064V8.37299C37.1876 8.1729 37.2464 8.00811 37.3641 7.87864C37.4936 7.74917 37.6584 7.68444 37.8585 7.68444C38.0586 7.68444 38.2234 7.74917 38.3528 7.87864C38.4823 8.00811 38.547 8.1729 38.547 8.37299V17.0064C38.547 17.6066 38.7236 18.101 39.0767 18.4894C39.4298 18.866 39.8829 19.0544 40.4361 19.0544H40.9128C41.1012 19.0544 41.2542 19.1191 41.3719 19.2486C41.4896 19.378 41.5484 19.5428 41.5484 19.7429C41.5484 19.943 41.4778 20.1078 41.3366 20.2373C41.1953 20.355 41.0188 20.4138 40.8069 20.4138H40.4361ZM36.04 12.2924C35.8635 12.2924 35.7163 12.2395 35.5986 12.1335C35.4809 12.0158 35.4221 11.8746 35.4221 11.7098C35.4221 11.5333 35.4809 11.392 35.5986 11.2861C35.7163 11.1684 35.8635 11.1095 36.04 11.1095H40.5421C40.7186 11.1095 40.8658 11.1684 40.9835 11.2861C41.1012 11.392 41.16 11.5333 41.16 11.7098C41.16 11.8746 41.1012 12.0158 40.9835 12.1335C40.8658 12.2395 40.7186 12.2924 40.5421 12.2924H36.04ZM45.421 24.6157C45.3268 24.6157 45.2209 24.5922 45.1032 24.5451C44.703 24.3686 44.5912 24.0861 44.7677 23.6977L50.4703 11.1272C50.6469 10.7506 50.9294 10.6446 51.3178 10.8094C51.718 10.9742 51.8298 11.2508 51.6532 11.6392L45.933 24.2097C45.8153 24.4804 45.6446 24.6157 45.421 24.6157ZM47.3807 20.1137C47.2041 20.1961 47.0394 20.2137 46.8863 20.1666C46.7333 20.1078 46.6098 19.9901 46.5156 19.8135L42.5785 11.6569C42.4961 11.4803 42.4843 11.3155 42.5432 11.1625C42.602 11.0095 42.7197 10.8918 42.8963 10.8094C43.0728 10.727 43.2376 10.7152 43.3906 10.7741C43.5436 10.8212 43.6613 10.933 43.7437 11.1095L47.6102 19.2662C47.7044 19.4428 47.7338 19.6076 47.6985 19.7606C47.6632 19.9136 47.5572 20.0313 47.3807 20.1137ZM55.5171 20.4138C55.0463 20.4138 54.6226 20.2843 54.2459 20.0254C53.8811 19.7665 53.5927 19.4075 53.3808 18.9484C53.1807 18.4894 53.0807 17.9597 53.0807 17.3595V7.29602C53.0807 7.09593 53.1395 6.93703 53.2572 6.81933C53.3867 6.68986 53.5515 6.62513 53.7516 6.62513C53.9517 6.62513 54.1106 6.68986 54.2283 6.81933C54.3578 6.93703 54.4225 7.09593 54.4225 7.29602V17.3595C54.4225 17.8656 54.5225 18.2775 54.7226 18.5953C54.9345 18.9131 55.1993 19.072 55.5171 19.072H55.9585C56.135 19.072 56.2763 19.1368 56.3822 19.2662C56.4881 19.3839 56.5411 19.5428 56.5411 19.7429C56.5411 19.943 56.4646 20.1078 56.3116 20.2373C56.1704 20.355 55.982 20.4138 55.7466 20.4138H55.5171ZM62.2606 20.5021C61.3072 20.5021 60.4597 20.2961 59.7182 19.8842C58.9885 19.4604 58.4117 18.8778 57.988 18.1363C57.5761 17.3948 57.3701 16.5473 57.3701 15.594C57.3701 14.6288 57.5643 13.7814 57.9527 13.0516C58.3529 12.3101 58.9002 11.7275 59.5946 11.3037C60.2891 10.88 61.0894 10.6682 61.9957 10.6682C62.8903 10.6682 63.6671 10.8741 64.3262 11.2861C64.9971 11.6863 65.515 12.2454 65.8799 12.9633C66.2447 13.6813 66.4272 14.4993 66.4272 15.4174C66.4272 15.6057 66.3683 15.7587 66.2506 15.8764C66.1329 15.9824 65.9799 16.0353 65.7916 16.0353H58.2881V14.9054H65.9328L65.1737 15.4527C65.1854 14.77 65.0618 14.158 64.8029 13.6166C64.544 13.0752 64.1732 12.6514 63.6906 12.3454C63.2198 12.0394 62.6549 11.8864 61.9957 11.8864C61.3248 11.8864 60.7363 12.0453 60.2302 12.3631C59.7241 12.6809 59.3298 13.1222 59.0473 13.6872C58.7766 14.2404 58.6412 14.876 58.6412 15.594C58.6412 16.3119 58.7943 16.9475 59.1003 17.5007C59.4181 18.0539 59.8477 18.4894 60.3891 18.8072C60.9305 19.125 61.5544 19.2839 62.2606 19.2839C62.6843 19.2839 63.108 19.2133 63.5317 19.072C63.9672 18.919 64.3144 18.7307 64.5734 18.5071C64.7029 18.4011 64.85 18.3482 65.0148 18.3482C65.1795 18.3364 65.3208 18.3776 65.4385 18.4717C65.5915 18.613 65.668 18.766 65.668 18.9308C65.6798 19.0956 65.615 19.2368 65.4738 19.3545C65.0854 19.6841 64.591 19.9607 63.9908 20.1843C63.3905 20.3962 62.8138 20.5021 62.2606 20.5021ZM69.2919 14.464C69.3272 13.7343 69.5155 13.081 69.8568 12.5043C70.2099 11.9276 70.6631 11.4744 71.2163 11.1449C71.7813 10.8153 72.4051 10.6505 73.0877 10.6505C73.6292 10.6505 74.047 10.727 74.3413 10.88C74.6355 11.033 74.7473 11.2567 74.6767 11.5509C74.6296 11.7275 74.5472 11.8452 74.4295 11.904C74.3236 11.9629 74.1882 11.9864 74.0235 11.9746C73.8704 11.9629 73.6939 11.9511 73.4938 11.9393C72.8347 11.8805 72.2462 11.9511 71.7283 12.1512C71.2222 12.3395 70.8161 12.6338 70.5101 13.034C70.2158 13.4341 70.0687 13.9108 70.0687 14.464H69.2919ZM69.3978 20.4138C69.1859 20.4138 69.0212 20.355 68.9035 20.2373C68.7858 20.1196 68.7269 19.9548 68.7269 19.7429V11.4273C68.7269 11.2155 68.7858 11.0507 68.9035 10.933C69.0212 10.8153 69.1859 10.7564 69.3978 10.7564C69.6097 10.7564 69.7744 10.8153 69.8921 10.933C70.0098 11.0507 70.0687 11.2155 70.0687 11.4273V19.7429C70.0687 19.9548 70.0098 20.1196 69.8921 20.2373C69.7744 20.355 69.6097 20.4138 69.3978 20.4138Z" fill="rgba(13, 46, 237, 1)"/>
<path d="M16.0063 31C15.9092 31 15.8276 30.9669 15.7614 30.9007C15.6952 30.8345 15.6621 30.7528 15.6621 30.6557V26.1735C15.6621 26.072 15.6952 25.9903 15.7614 25.9286C15.8276 25.8623 15.9092 25.8292 16.0063 25.8292H17.1981C17.5291 25.8292 17.8226 25.8999 18.0786 26.0411C18.3346 26.1779 18.5332 26.3677 18.6745 26.6105C18.8201 26.8532 18.893 27.1357 18.893 27.4579C18.893 27.7581 18.8201 28.0251 18.6745 28.259C18.5332 28.493 18.3346 28.6761 18.0786 28.8086C17.8226 28.941 17.5291 29.0072 17.1981 29.0072H16.3506V30.6557C16.3506 30.7528 16.3175 30.8345 16.2513 30.9007C16.1895 30.9669 16.1079 31 16.0063 31ZM18.7539 31C18.6921 31 18.6348 30.9868 18.5818 30.9603C18.5332 30.9338 18.4913 30.8919 18.456 30.8345L17.2643 28.9145L17.933 28.7225L19.0188 30.4703C19.0982 30.5983 19.1092 30.7197 19.0519 30.8345C18.9945 30.9448 18.8952 31 18.7539 31ZM16.3506 28.3716H17.1981C17.4011 28.3716 17.5799 28.3341 17.7343 28.259C17.8888 28.1796 18.0102 28.0714 18.0985 27.9346C18.1868 27.7934 18.2309 27.6345 18.2309 27.4579C18.2309 27.2637 18.1868 27.0916 18.0985 26.9415C18.0102 26.7914 17.8888 26.6745 17.7343 26.5906C17.5799 26.5068 17.4011 26.4648 17.1981 26.4648H16.3506V28.3716ZM21.4806 31.0265C21.1142 31.0265 20.7876 30.9492 20.5007 30.7948C20.2182 30.6359 19.9953 30.4196 19.832 30.1459C19.6731 29.8679 19.5937 29.5501 19.5937 29.1926C19.5937 28.8306 19.6687 28.5128 19.8188 28.2392C19.9733 27.9611 20.1851 27.7448 20.4544 27.5903C20.7236 27.4314 21.0326 27.352 21.3813 27.352C21.7255 27.352 22.0213 27.4292 22.2684 27.5837C22.5156 27.7338 22.7032 27.9434 22.8312 28.2127C22.9636 28.4775 23.0298 28.7843 23.0298 29.133C23.0298 29.2168 23.0011 29.2874 22.9437 29.3448C22.8864 29.3978 22.8135 29.4243 22.7253 29.4243H20.0571V28.8946H22.7054L22.4339 29.08C22.4295 28.8593 22.3854 28.6629 22.3015 28.4908C22.2177 28.3142 22.0985 28.1752 21.944 28.0737C21.7895 27.9721 21.6019 27.9214 21.3813 27.9214C21.1297 27.9214 20.9134 27.9766 20.7324 28.0869C20.5559 28.1972 20.4213 28.3495 20.3286 28.5437C20.2359 28.7335 20.1895 28.9498 20.1895 29.1926C20.1895 29.4353 20.2447 29.6516 20.3551 29.8414C20.4654 30.0312 20.6177 30.1812 20.8119 30.2916C21.0061 30.4019 21.229 30.4571 21.4806 30.4571C21.6174 30.4571 21.7564 30.4328 21.8977 30.3843C22.0433 30.3313 22.1603 30.2717 22.2486 30.2055C22.3148 30.157 22.3854 30.1327 22.4604 30.1327C22.5399 30.1283 22.6083 30.1503 22.6657 30.1989C22.7407 30.2651 22.7804 30.3379 22.7848 30.4174C22.7893 30.4968 22.7539 30.5652 22.6789 30.6226C22.5288 30.7418 22.3413 30.8389 22.1162 30.9139C21.8955 30.989 21.6836 31.0265 21.4806 31.0265ZM24.2817 31C24.1979 31 24.1228 30.9691 24.0566 30.9073C23.9904 30.8455 23.9573 30.7639 23.9573 30.6623V27.3983C23.9573 27.0806 24.0191 26.8047 24.1427 26.5708C24.2707 26.3368 24.4473 26.1559 24.6724 26.0279C24.8975 25.8954 25.1579 25.8292 25.4536 25.8292C25.5507 25.8292 25.6302 25.8579 25.6919 25.9153C25.7582 25.9727 25.7913 26.0455 25.7913 26.1338C25.7913 26.2177 25.7582 26.2905 25.6919 26.3523C25.6302 26.4097 25.5507 26.4383 25.4536 26.4383C25.2903 26.4383 25.1468 26.4759 25.0233 26.5509C24.8997 26.6259 24.8026 26.7297 24.7319 26.8621C24.6657 26.9945 24.6326 27.1512 24.6326 27.3321V30.6623C24.6326 30.7639 24.6017 30.8455 24.5399 30.9073C24.4782 30.9691 24.3921 31 24.2817 31ZM23.6726 28.0803C23.5799 28.0803 23.5049 28.0538 23.4475 28.0008C23.3902 27.9479 23.3615 27.8817 23.3615 27.8022C23.3615 27.7139 23.3902 27.6433 23.4475 27.5903C23.5049 27.5374 23.5799 27.5109 23.6726 27.5109H25.3079C25.4006 27.5109 25.4757 27.5374 25.5331 27.5903C25.5904 27.6433 25.6191 27.7139 25.6191 27.8022C25.6191 27.8817 25.5904 27.9479 25.5331 28.0008C25.4757 28.0538 25.4006 28.0803 25.3079 28.0803H23.6726ZM27.8944 31.0265C27.528 31.0265 27.2014 30.9492 26.9145 30.7948C26.632 30.6359 26.4091 30.4196 26.2458 30.1459C26.0869 29.8679 26.0075 29.5501 26.0075 29.1926C26.0075 28.8306 26.0825 28.5128 26.2326 28.2392C26.3871 27.9611 26.5989 27.7448 26.8682 27.5903C27.1374 27.4314 27.4464 27.352 27.7951 27.352C28.1393 27.352 28.4351 27.4292 28.6822 27.5837C28.9294 27.7338 29.117 27.9434 29.245 28.2127C29.3774 28.4775 29.4436 28.7843 29.4436 29.133C29.4436 29.2168 29.4149 29.2874 29.3575 29.3448C29.3002 29.3978 29.2273 29.4243 29.1391 29.4243H26.4709V28.8946H29.1192L28.8477 29.08C28.8433 28.8593 28.7992 28.6629 28.7153 28.4908C28.6315 28.3142 28.5123 28.1752 28.3578 28.0737C28.2033 27.9721 28.0157 27.9214 27.7951 27.9214C27.5435 27.9214 27.3272 27.9766 27.1462 28.0869C26.9697 28.1972 26.8351 28.3495 26.7424 28.5437C26.6497 28.7335 26.6033 28.9498 26.6033 29.1926C26.6033 29.4353 26.6585 29.6516 26.7688 29.8414C26.8792 30.0312 27.0315 30.1812 27.2257 30.2916C27.4199 30.4019 27.6428 30.4571 27.8944 30.4571C28.0312 30.4571 28.1702 30.4328 28.3115 30.3843C28.4571 30.3313 28.5741 30.2717 28.6624 30.2055C28.7286 30.157 28.7992 30.1327 28.8742 30.1327C28.9537 30.1283 29.0221 30.1503 29.0795 30.1989C29.1545 30.2651 29.1942 30.3379 29.1986 30.4174C29.2031 30.4968 29.1677 30.5652 29.0927 30.6226C28.9426 30.7418 28.7551 30.8389 28.5299 30.9139C28.3093 30.989 28.0974 31.0265 27.8944 31.0265ZM30.6293 28.7357C30.6293 28.4709 30.6933 28.2348 30.8213 28.0273C30.9537 27.8154 31.1303 27.6477 31.351 27.5241C31.5717 27.4006 31.8144 27.3388 32.0793 27.3388C32.3441 27.3388 32.5405 27.3829 32.6685 27.4712C32.8009 27.555 32.8517 27.6566 32.8208 27.7757C32.8075 27.8375 32.7811 27.8861 32.7413 27.9214C32.706 27.9523 32.6641 27.9721 32.6155 27.981C32.567 27.9898 32.514 27.9876 32.4566 27.9743C32.1742 27.917 31.9204 27.9126 31.6953 27.9611C31.4702 28.0097 31.2914 28.1001 31.159 28.2326C31.031 28.365 30.967 28.5327 30.967 28.7357H30.6293ZM30.6359 31C30.53 31 30.4484 30.9735 30.391 30.9206C30.3336 30.8632 30.3049 30.7793 30.3049 30.669V27.7095C30.3049 27.6036 30.3336 27.5219 30.391 27.4646C30.4484 27.4072 30.53 27.3785 30.6359 27.3785C30.7463 27.3785 30.8279 27.4072 30.8809 27.4646C30.9383 27.5175 30.967 27.5992 30.967 27.7095V30.669C30.967 30.7749 30.9383 30.8566 30.8809 30.9139C30.8279 30.9713 30.7463 31 30.6359 31ZM33.8492 28.7357C33.8492 28.4709 33.9132 28.2348 34.0412 28.0273C34.1736 27.8154 34.3501 27.6477 34.5708 27.5241C34.7915 27.4006 35.0343 27.3388 35.2991 27.3388C35.5639 27.3388 35.7603 27.3829 35.8883 27.4712C36.0207 27.555 36.0715 27.6566 36.0406 27.7757C36.0274 27.8375 36.0009 27.8861 35.9612 27.9214C35.9258 27.9523 35.8839 27.9721 35.8354 27.981C35.7868 27.9898 35.7338 27.9876 35.6765 27.9743C35.394 27.917 35.1402 27.9126 34.9151 27.9611C34.69 28.0097 34.5112 28.1001 34.3788 28.2326C34.2508 28.365 34.1868 28.5327 34.1868 28.7357H33.8492ZM33.8558 31C33.7498 31 33.6682 30.9735 33.6108 30.9206C33.5534 30.8632 33.5247 30.7793 33.5247 30.669V27.7095C33.5247 27.6036 33.5534 27.5219 33.6108 27.4646C33.6682 27.4072 33.7498 27.3785 33.8558 27.3785C33.9661 27.3785 34.0478 27.4072 34.1007 27.4646C34.1581 27.5175 34.1868 27.5992 34.1868 27.7095V30.669C34.1868 30.7749 34.1581 30.8566 34.1007 30.9139C34.0478 30.9713 33.9661 31 33.8558 31ZM37.989 31.0265C37.6668 31.0265 37.3777 30.947 37.1217 30.7881C36.8657 30.6248 36.6627 30.4063 36.5126 30.1327C36.3669 29.8546 36.2941 29.5412 36.2941 29.1926C36.2941 28.8439 36.3736 28.5305 36.5325 28.2524C36.6958 27.9743 36.9142 27.7559 37.1879 27.597C37.466 27.4337 37.7771 27.352 38.1214 27.352C38.4657 27.352 38.7747 27.4337 39.0483 27.597C39.322 27.7559 39.5382 27.9743 39.6971 28.2524C39.8605 28.5305 39.9421 28.8439 39.9421 29.1926H39.6839C39.6839 29.5412 39.6089 29.8546 39.4588 30.1327C39.3131 30.4063 39.1123 30.6248 38.8563 30.7881C38.6003 30.947 38.3112 31.0265 37.989 31.0265ZM38.1214 30.4306C38.3465 30.4306 38.5473 30.3777 38.7239 30.2717C38.9005 30.1614 39.0395 30.0135 39.141 29.8281C39.2425 29.6383 39.2933 29.4265 39.2933 29.1926C39.2933 28.9542 39.2425 28.7423 39.141 28.557C39.0395 28.3672 38.9005 28.2193 38.7239 28.1134C38.5473 28.003 38.3465 27.9479 38.1214 27.9479C37.9007 27.9479 37.6999 28.003 37.5189 28.1134C37.3424 28.2193 37.2011 28.3672 37.0952 28.557C36.9937 28.7423 36.9429 28.9542 36.9429 29.1926C36.9429 29.4265 36.9937 29.6383 37.0952 29.8281C37.2011 30.0135 37.3424 30.1614 37.5189 30.2717C37.6999 30.3777 37.9007 30.4306 38.1214 30.4306ZM39.6045 31.0066C39.5073 31.0066 39.4257 30.9757 39.3595 30.9139C39.2977 30.8477 39.2668 30.7661 39.2668 30.669V29.656L39.3926 28.9542L39.9421 29.1926V30.669C39.9421 30.7661 39.909 30.8477 39.8428 30.9139C39.781 30.9757 39.7016 31.0066 39.6045 31.0066ZM41.8078 31C41.6136 31 41.4415 30.947 41.2914 30.8411C41.1414 30.7352 41.0244 30.5917 40.9405 30.4108C40.8567 30.2254 40.8147 30.0135 40.8147 29.7752V26.1603C40.8147 26.0632 40.8456 25.9837 40.9074 25.9219C40.9692 25.8601 41.0487 25.8292 41.1458 25.8292C41.2429 25.8292 41.3223 25.8601 41.3841 25.9219C41.4459 25.9837 41.4768 26.0632 41.4768 26.1603V29.7752C41.4768 29.9385 41.5077 30.0731 41.5695 30.179C41.6313 30.285 41.7107 30.3379 41.8078 30.3379H41.9734C42.0616 30.3379 42.1323 30.3688 42.1852 30.4306C42.2426 30.4924 42.2713 30.5719 42.2713 30.669C42.2713 30.7661 42.2294 30.8455 42.1455 30.9073C42.0616 30.9691 41.9535 31 41.8211 31H41.8078ZM45.2756 31C45.1785 31 45.0968 30.9669 45.0306 30.9007C44.9688 30.8345 44.9379 30.7528 44.9379 30.6557V26.1735C44.9379 26.072 44.9688 25.9903 45.0306 25.9286C45.0968 25.8623 45.1785 25.8292 45.2756 25.8292C45.3815 25.8292 45.4698 25.8712 45.5404 25.955L48.427 29.795V26.1735C48.427 26.072 48.4601 25.9903 48.5263 25.9286C48.5926 25.8623 48.6742 25.8292 48.7713 25.8292C48.8728 25.8292 48.9545 25.8623 49.0163 25.9286C49.0781 25.9903 49.109 26.072 49.109 26.1735V30.6557C49.109 30.7528 49.0781 30.8345 49.0163 30.9007C48.9545 30.9669 48.8728 31 48.7713 31C48.7272 31 48.6786 30.9912 48.6257 30.9735C48.5771 30.9514 48.5374 30.9206 48.5065 30.8808L45.6199 27.0408V30.6557C45.6199 30.7528 45.5868 30.8345 45.5206 30.9007C45.4588 30.9669 45.3771 31 45.2756 31ZM52.0689 31.0265C51.7026 31.0265 51.376 30.9492 51.0891 30.7948C50.8066 30.6359 50.5837 30.4196 50.4204 30.1459C50.2615 29.8679 50.182 29.5501 50.182 29.1926C50.182 28.8306 50.2571 28.5128 50.4071 28.2392C50.5616 27.9611 50.7735 27.7448 51.0427 27.5903C51.312 27.4314 51.6209 27.352 51.9696 27.352C52.3139 27.352 52.6096 27.4292 52.8568 27.5837C53.104 27.7338 53.2916 27.9434 53.4196 28.2127C53.552 28.4775 53.6182 28.7843 53.6182 29.133C53.6182 29.2168 53.5895 29.2874 53.5321 29.3448C53.4747 29.3978 53.4019 29.4243 53.3136 29.4243H50.6455V28.8946H53.2938L53.0223 29.08C53.0179 28.8593 52.9738 28.6629 52.8899 28.4908C52.806 28.3142 52.6869 28.1752 52.5324 28.0737C52.3779 27.9721 52.1903 27.9214 51.9696 27.9214C51.718 27.9214 51.5018 27.9766 51.3208 28.0869C51.1442 28.1972 51.0096 28.3495 50.9169 28.5437C50.8242 28.7335 50.7779 28.9498 50.7779 29.1926C50.7779 29.4353 50.8331 29.6516 50.9434 29.8414C51.0538 30.0312 51.206 30.1812 51.4002 30.2916C51.5945 30.4019 51.8174 30.4571 52.0689 30.4571C52.2058 30.4571 52.3448 30.4328 52.486 30.3843C52.6317 30.3313 52.7487 30.2717 52.8369 30.2055C52.9031 30.157 52.9738 30.1327 53.0488 30.1327C53.1282 30.1283 53.1967 30.1503 53.254 30.1989C53.3291 30.2651 53.3688 30.3379 53.3732 30.4174C53.3776 30.4968 53.3423 30.5652 53.2673 30.6226C53.1172 30.7418 52.9296 30.8389 52.7045 30.9139C52.4838 30.989 52.272 31.0265 52.0689 31.0265ZM55.797 31C55.5763 31 55.3777 30.9448 55.2011 30.8345C55.0246 30.7197 54.8856 30.5652 54.784 30.371C54.6825 30.1768 54.6318 29.9583 54.6318 29.7156V26.5575C54.6318 26.4604 54.6627 26.381 54.7245 26.3192C54.7862 26.2574 54.8657 26.2265 54.9628 26.2265C55.0599 26.2265 55.1393 26.2574 55.2011 26.3192C55.2629 26.381 55.2938 26.4604 55.2938 26.5575V29.7156C55.2938 29.8921 55.3424 30.04 55.4395 30.1592C55.5366 30.2783 55.6558 30.3379 55.797 30.3379H56.0221C56.1016 30.3379 56.1678 30.3688 56.2207 30.4306C56.2781 30.4924 56.3068 30.5719 56.3068 30.669C56.3068 30.7661 56.2693 30.8455 56.1942 30.9073C56.1236 30.9691 56.0309 31 55.9162 31H55.797ZM54.3272 28.0803C54.2345 28.0803 54.1595 28.0538 54.1021 28.0008C54.0447 27.9479 54.016 27.8817 54.016 27.8022C54.016 27.7139 54.0447 27.6433 54.1021 27.5903C54.1595 27.5374 54.2345 27.5109 54.3272 27.5109H55.8566C55.9493 27.5109 56.0243 27.5374 56.0817 27.5903C56.1391 27.6433 56.1678 27.7139 56.1678 27.8022C56.1678 27.8817 56.1391 27.9479 56.0817 28.0008C56.0243 28.0538 55.9493 28.0803 55.8566 28.0803H54.3272ZM57.971 31C57.9004 31 57.8342 30.9801 57.7724 30.9404C57.715 30.8963 57.6753 30.8433 57.6532 30.7815L56.6734 27.8419C56.6381 27.7051 56.6381 27.5948 56.6734 27.5109C56.7131 27.4226 56.797 27.3785 56.925 27.3785C57.0088 27.3785 57.0772 27.4028 57.1302 27.4513C57.1876 27.4954 57.2339 27.5727 57.2692 27.683L58.1034 30.2916H57.8717L58.6596 27.6301C58.6816 27.555 58.7192 27.4954 58.7721 27.4513C58.8251 27.4028 58.8979 27.3785 58.9906 27.3785C59.0789 27.3785 59.1495 27.4028 59.2025 27.4513C59.2599 27.4954 59.2974 27.555 59.315 27.6301L59.9572 30.1327H59.8579L60.6392 27.683C60.701 27.48 60.8157 27.3785 60.9834 27.3785C61.107 27.3785 61.1909 27.4226 61.235 27.5109C61.2792 27.5948 61.277 27.7051 61.2284 27.8419L60.2485 30.7815C60.2309 30.8433 60.1934 30.8963 60.136 30.9404C60.0786 30.9801 60.0124 31 59.9374 31C59.8667 31 59.8005 30.9801 59.7387 30.9404C59.677 30.8963 59.6372 30.8433 59.6196 30.7815L58.9376 28.259H59.0039L58.2888 30.7815C58.2712 30.8433 58.2314 30.8963 58.1696 30.9404C58.1123 30.9801 58.0461 31 57.971 31ZM63.4662 31.0265C63.1087 31.0265 62.7931 30.9492 62.5195 30.7948C62.2458 30.6359 62.0296 30.4196 61.8707 30.1459C61.7162 29.8679 61.6389 29.5501 61.6389 29.1926C61.6389 28.8306 61.7162 28.5128 61.8707 28.2392C62.0296 27.9611 62.2458 27.7448 62.5195 27.5903C62.7931 27.4314 63.1087 27.352 63.4662 27.352C63.8194 27.352 64.1327 27.4314 64.4064 27.5903C64.68 27.7448 64.8941 27.9611 65.0486 28.2392C65.2075 28.5128 65.2869 28.8306 65.2869 29.1926C65.2869 29.5501 65.2097 29.8679 65.0552 30.1459C64.9007 30.4196 64.6867 30.6359 64.413 30.7948C64.1394 30.9492 63.8238 31.0265 63.4662 31.0265ZM63.4662 30.4306C63.6958 30.4306 63.8988 30.3777 64.0754 30.2717C64.2519 30.1658 64.3887 30.0201 64.4858 29.8348C64.5874 29.6494 64.6381 29.4353 64.6381 29.1926C64.6381 28.9498 64.5874 28.7357 64.4858 28.5503C64.3887 28.3606 64.2519 28.2127 64.0754 28.1068C63.8988 28.0008 63.6958 27.9479 63.4662 27.9479C63.2367 27.9479 63.0337 28.0008 62.8571 28.1068C62.6806 28.2127 62.5416 28.3606 62.44 28.5503C62.3385 28.7357 62.2878 28.9498 62.2878 29.1926C62.2878 29.4353 62.3385 29.6494 62.44 29.8348C62.5416 30.0201 62.6806 30.1658 62.8571 30.2717C63.0337 30.3777 63.2367 30.4306 63.4662 30.4306ZM66.6164 28.7357C66.6164 28.4709 66.6804 28.2348 66.8084 28.0273C66.9408 27.8154 67.1174 27.6477 67.3381 27.5241C67.5587 27.4006 67.8015 27.3388 68.0663 27.3388C68.3312 27.3388 68.5276 27.3829 68.6556 27.4712C68.788 27.555 68.8387 27.6566 68.8078 27.7757C68.7946 27.8375 68.7681 27.8861 68.7284 27.9214C68.6931 27.9523 68.6512 27.9721 68.6026 27.981C68.5541 27.9898 68.5011 27.9876 68.4437 27.9743C68.1612 27.917 67.9074 27.9126 67.6823 27.9611C67.4572 28.0097 67.2785 28.1001 67.1461 28.2326C67.0181 28.365 66.9541 28.5327 66.9541 28.7357H66.6164ZM66.623 31C66.5171 31 66.4354 30.9735 66.3781 30.9206C66.3207 30.8632 66.292 30.7793 66.292 30.669V27.7095C66.292 27.6036 66.3207 27.5219 66.3781 27.4646C66.4354 27.4072 66.5171 27.3785 66.623 27.3785C66.7334 27.3785 66.815 27.4072 66.868 27.4646C66.9254 27.5175 66.9541 27.5992 66.9541 27.7095V30.669C66.9541 30.7749 66.9254 30.8566 66.868 30.9139C66.815 30.9713 66.7334 31 66.623 31ZM70.1474 29.6759L69.7369 29.2257L71.7695 27.4116C71.8357 27.3498 71.9085 27.3211 71.988 27.3255C72.0718 27.3299 72.1424 27.3652 72.1998 27.4314C72.2616 27.4977 72.2903 27.5705 72.2859 27.6499C72.2815 27.7294 72.2462 27.8 72.18 27.8618L70.1474 29.6759ZM69.8362 31C69.7391 31 69.6597 30.9713 69.5979 30.9139C69.5405 30.8521 69.5118 30.7727 69.5118 30.6756V26.1537C69.5118 26.0566 69.5405 25.9793 69.5979 25.9219C69.6597 25.8601 69.7391 25.8292 69.8362 25.8292C69.9333 25.8292 70.0106 25.8601 70.068 25.9219C70.1297 25.9793 70.1606 26.0566 70.1606 26.1537V30.6756C70.1606 30.7727 70.1297 30.8521 70.068 30.9139C70.0106 30.9713 69.9333 31 69.8362 31ZM72.1998 30.9669C72.1292 31.0243 72.0497 31.0486 71.9615 31.0397C71.8776 31.0353 71.807 30.9978 71.7496 30.9272L70.4056 29.2654L70.8691 28.8284L72.2462 30.5233C72.3035 30.5939 72.3278 30.6712 72.319 30.755C72.3146 30.8345 72.2749 30.9051 72.1998 30.9669Z" fill="rgba(13, 46, 237, 1)"/>
<path d="M40.4036 1.2512C40.2725 1.70032 40.0621 2.57973 40.0621 3.60617C40.0621 4.07612 39.8947 4.50841 39.6151 4.85056C39.3915 3.78285 38.8838 2.8766 38.285 2.22396C38.5819 1.95232 38.8962 1.74639 39.2031 1.6246C39.74 1.41066 40.1475 1.30409 40.4036 1.2512ZM39.5841 0.424679C39.547 0.580128 39.5111 0.801282 39.4926 1.09014C39.354 1.13742 39.208 1.1895 39.0472 1.25361C38.6929 1.39463 38.3332 1.62901 37.9984 1.9363C37.7983 1.7528 37.5925 1.60096 37.3867 1.47556C38.2227 0.601362 39.2468 0.458333 39.5845 0.424679H39.5841ZM37.5892 0.766026C37.4201 0.885417 37.2081 1.05609 37.018 1.27244C36.8415 1.1879 36.6716 1.14744 36.5074 1.08974C36.4889 0.801282 36.4526 0.579728 36.4159 0.424279C36.6889 0.459135 37.1265 0.552484 37.5892 0.765625V0.766026ZM35.9379 3.60617C35.9379 2.57973 35.7275 1.70032 35.5964 1.2512C35.8525 1.30409 36.26 1.41066 36.7969 1.6246C37.8189 2.03125 38.9729 3.37901 39.2587 5.19191C38.9102 5.45353 38.4739 5.60937 38 5.60937C36.8629 5.60937 35.9379 4.71074 35.9379 3.60617Z" fill="rgba(13, 46, 237, 1)"/>
</svg>
